<?xml version="1.0" encoding="UTF-8"?><!DOCTYPE svg PUBLIC "-//W3C//DTD SVG 1.1//EN" "http://www.w3.org/Graphics/SVG/1.1/DTD/svg11.dtd"><svg xmlns="http://www.w3.org/2000/svg" width="54.953" height="54.953"><path d="M27.476 17.418c2.551 0 3.827-1.276 3.827-3.827 0-2.583-1.275-3.876-3.827-3.876s-3.827 1.292-3.827 3.876c0 2.551 1.275 3.827 3.827 3.827z"/><path d="M46.955 7.949C41.654 2.649 35.146 0 27.427 0 19.838 0 13.395 2.649 8.096 7.949 2.699 13.444 0 19.953 0 27.476 0 35 2.699 41.458 8.096 46.855c5.462 5.397 11.905 8.098 19.331 8.098 7.556 0 14.114-2.73 19.675-8.195 5.231-5.135 7.852-11.562 7.852-19.281-.001-7.687-2.669-14.197-7.999-19.528zM43.52 43.227c-4.547 4.479-9.877 6.723-15.995 6.723-6.15 0-11.449-2.225-15.897-6.674-4.449-4.447-6.672-9.715-6.672-15.798 0-6.051 2.24-11.366 6.722-15.946 4.317-4.383 9.6-6.575 15.848-6.575 6.214 0 11.513 2.192 15.896 6.575 4.385 4.383 6.576 9.698 6.576 15.946-.002 6.344-2.161 11.594-6.478 15.749z"/><path d="M33.119 18.89H21.833c-.491 0-.908.172-1.251.515a1.707 1.707 0 00-.515 1.251V31.89h3.14v13.346h8.537V31.893h3.141V20.656c0-.491-.18-.908-.539-1.251-.362-.343-.77-.515-1.227-.515z"/></svg>
