<?xml version="1.0" encoding="UTF-8"?><!DOCTYPE svg PUBLIC "-//W3C//DTD SVG 1.1//EN" "http://www.w3.org/Graphics/SVG/1.1/DTD/svg11.dtd"><svg xmlns="http://www.w3.org/2000/svg" width="54.953" height="54.953"><path d="M46.955 7.948C41.655 2.649 35.146 0 27.427 0 19.838 0 13.395 2.649 8.096 7.948 2.699 13.443 0 19.953 0 27.476c0 7.49 2.699 13.934 8.096 19.331 5.429 5.43 11.873 8.146 19.331 8.146 7.556 0 14.114-2.731 19.674-8.195 5.232-5.135 7.852-11.562 7.852-19.281 0-7.721-2.668-14.23-7.998-19.529zM43.52 43.175c-4.481 4.482-9.812 6.723-15.995 6.723-6.117 0-11.416-2.208-15.897-6.624-4.449-4.448-6.672-9.715-6.672-15.799 0-2.682.409-5.151 1.227-7.409l14.032 6.28 4.367 1.913 3.238 1.473 2.649 1.129c.491.426.735.98.735 1.668 0 .98-.336 1.686-1.006 2.11-.671.425-1.479.638-2.429.638-2.29 0-4.334-.834-6.133-2.502l-3.778 3.827c2.518 2.159 5.299 3.255 8.341 3.287v4.22h3.189v-4.22c1.896-.163 3.541-.792 4.931-1.89 1.391-1.096 2.266-2.51 2.625-4.244l10.354 4.613c-.918 1.669-2.175 3.271-3.778 4.807zm-8.292-16.092l-4.416-1.962-2.404-1.08-3.483-1.57c-.164-.229-.245-.458-.245-.687 0-.785.335-1.341 1.006-1.668.67-.327 1.43-.491 2.281-.491 1.603 0 3.172.54 4.71 1.619l3.582-3.68c-2.061-1.57-4.352-2.42-6.869-2.551v-4.22H26.2v4.22c-1.701.098-3.189.581-4.465 1.447-1.276.867-2.143 2.02-2.601 3.459l-10.5-4.71a26.271 26.271 0 013.042-3.68c4.317-4.416 9.6-6.624 15.848-6.624 6.247 0 11.546 2.208 15.896 6.624 4.384 4.318 6.576 9.633 6.576 15.946 0 1.996-.229 3.958-.688 5.888l-14.08-6.28z"/></svg>
