<?xml version="1.0" encoding="UTF-8"?><!DOCTYPE svg PUBLIC "-//W3C//DTD SVG 1.1//EN" "http://www.w3.org/Graphics/SVG/1.1/DTD/svg11.dtd"><svg xmlns="http://www.w3.org/2000/svg" width="54.953" height="54.951"><path d="M17.908 29.831h19.968v4.71H17.908zM17.908 20.999h19.968v4.71H17.908z"/><path d="M46.955 7.998C41.623 2.666 35.113 0 27.427 0c-7.556 0-14 2.666-19.331 7.998C2.699 13.493 0 19.986 0 27.476 0 35 2.699 41.459 8.096 46.856c5.462 5.396 11.905 8.095 19.331 8.095 7.588 0 14.147-2.714 19.674-8.146 5.232-5.201 7.852-11.644 7.852-19.331 0-7.684-2.668-14.178-7.998-19.476zM43.52 43.226c-4.547 4.481-9.878 6.722-15.995 6.722-6.15 0-11.449-2.224-15.897-6.673-4.449-4.416-6.672-9.682-6.672-15.798 0-6.051 2.24-11.35 6.722-15.896 4.317-4.416 9.6-6.624 15.848-6.624 6.247 0 11.546 2.208 15.896 6.624 4.384 4.317 6.576 9.616 6.576 15.896-.002 6.312-2.161 11.562-6.478 15.749z"/></svg>
